<svg xmlns="http://www.w3.org/2000/svg" width="14" height="14"><g opacity=".301" transform="translate(-543 2.773)"><circle cx="7" cy="7" r="7" fill="#fff" transform="translate(543 -2.773)"/><path d="M552.553 7.227a.445.445 0 0 1-.316-.131l-5.106-5.106a.447.447 0 0 1 0-.632.447.447 0 0 1 .632 0l5.106 5.106a.447.447 0 0 1-.316.763z"/><path d="M547.447 7.227a.445.445 0 0 1-.316-.131.447.447 0 0 1 0-.632l5.106-5.106a.447.447 0 0 1 .632 0 .447.447 0 0 1 0 .632l-5.106 5.106a.445.445 0 0 1-.316.131z"/></g></svg>