<svg width="132" height="42" viewBox="0 0 132 42" fill="none" xmlns="http://www.w3.org/2000/svg">
<g id="img_logo">
<g id="logo">
<g id="&#234;&#183;&#184;&#235;&#163;&#185; 5598">
<mask id="mask0_385_15" style="mask-type:luminance" maskUnits="userSpaceOnUse" x="0" y="4" width="132" height="34">
<path id="clip-path" d="M0 4.87891H131.511V37.1259H0V4.87891Z" fill="white"/>
</mask>
<g mask="url(#mask0_385_15)">
<g id="Group">
<path id="&#237;&#140;&#168;&#236;&#138;&#164; 4595" d="M86.165 23.0532L92.5699 35.9788H102.522V5.65625H92.9944V18.2787C92.9948 18.4695 92.9306 18.6549 92.8122 18.8045C92.6938 18.9541 92.5282 19.0592 92.3424 19.1027C92.1567 19.1462 91.9616 19.1255 91.7891 19.044C91.6166 18.9624 91.4768 18.8249 91.3925 18.6537L84.9544 5.65625H75.002V35.9773H84.5585V23.4268C84.5584 23.2361 84.6229 23.051 84.7414 22.9016C84.8599 22.7523 85.0255 22.6474 85.2112 22.6041C85.3969 22.5608 85.5918 22.5817 85.7641 22.6632C85.9365 22.7448 86.0762 22.8822 86.1604 23.0532" fill="white"/>
<path id="&#236;&#130;&#172;&#234;&#176;&#129;&#237;&#152;&#149; 4338" d="M60.2627 5.65625H70.7132V35.9773H60.2627V5.65625Z" fill="white"/>
<path id="&#237;&#140;&#168;&#236;&#138;&#164; 4596" d="M105.61 17.9465V23.5355C105.61 28.9715 107.661 32.9015 111.703 35.2145C118.153 38.906 127.441 36.6275 131.512 33.617V19.5065H122.074V28.3805L121.894 28.451C121.145 28.7418 120.339 28.8611 119.538 28.8001C118.736 28.7391 117.958 28.4994 117.261 28.0985C116.605 27.5692 116.092 26.8837 115.77 26.1048C115.447 25.326 115.326 24.4786 115.416 23.6405V17.387C115.322 16.5748 115.526 15.7561 115.99 15.0832C116.455 14.4102 117.148 13.9288 117.94 13.7285C118.803 13.5208 119.712 13.6483 120.484 14.0852C121.255 14.5221 121.833 15.2358 122.098 16.082L131.241 11.1785C130.077 9.1556 128.374 7.49559 126.322 6.38328C124.27 5.27098 121.949 4.75004 119.619 4.87848C119.002 4.87848 118.402 4.90848 117.831 4.95948C114.741 5.14415 111.792 6.31736 109.419 8.30598C108.134 9.54846 107.13 11.0517 106.474 12.7145C105.819 14.3774 105.527 16.1614 105.618 17.9465" fill="white"/>
<path id="&#237;&#140;&#168;&#236;&#138;&#164; 4597" d="M25.9305 5.65625H0V14.5333H7.8V35.9832H18.1155V14.5333H25.923L25.9305 5.65625Z" fill="white"/>
<path id="&#237;&#140;&#168;&#236;&#138;&#164; 4598" d="M37.8992 36.3208L44.4332 16.0183C44.4939 15.8255 44.6217 15.6609 44.7935 15.5543C44.9652 15.4477 45.1695 15.4063 45.3692 15.4375C45.5689 15.4688 45.7507 15.5706 45.8817 15.7245C46.0128 15.8784 46.0842 16.0742 46.0832 16.2763L46.0832 36.3223L55.9922 36.3223L55.9922 5.99977L37.2557 5.99976L27.0002 36.3208L37.8992 36.3208Z" fill="white"/>
</g>
</g>
</g>
</g>
</g>
</svg>
