<svg xmlns="http://www.w3.org/2000/svg" width="72" height="72" viewBox="0 0 72 72"><defs><style>.icon-null-g_svg__cls-1{fill:#888}</style></defs><g id="icon-null-g_svg__icon_null_G" transform="translate(-564 -481)"><path id="icon-null-g_svg__\uD0C0\uC6D0_350" data-name="\uD0C0\uC6D0 350" class="icon-null-g_svg__cls-1" d="M36 3a33.009 33.009 0 00-12.844 63.408A33.009 33.009 0 0048.844 5.592 32.79 32.79 0 0036 3m0-3A36 36 0 110 36 36 36 0 0136 0z" transform="translate(564 481)"></path><path id="icon-null-g_svg__\uC120_145" data-name="\uC120 145" class="icon-null-g_svg__cls-1" d="M0 24.532a1.5 1.5 0 01-1.5-1.5V0A1.5 1.5 0 010-1.5 1.5 1.5 0 011.5 0v23.032a1.5 1.5 0 01-1.5 1.5z" transform="translate(599.987 499.379)"></path><path id="icon-null-g_svg__\uD328\uC2A4_4375" data-name="\uD328\uC2A4 4375" class="icon-null-g_svg__cls-1" d="M2.5 0A2.5 2.5 0 110 2.5 2.5 2.5 0 012.5 0z" transform="translate(597.469 530.688)"></path></g></svg>