<svg xmlns="http://www.w3.org/2000/svg" xmlns:xlink="http://www.w3.org/1999/xlink" version="1.1" x="0px" y="0px" viewBox="0 0 100 125" enable-background="new 0 0 100 100" xml:space="preserve"><g><path d="M50,29.627c-14.929,0-28.271,7.927-37.129,20.373C21.729,62.447,35.071,70.373,50,70.373   c14.928,0,28.271-7.926,37.129-20.373C78.271,37.554,64.928,29.627,50,29.627z M50,65.205c-8.396,0-15.205-6.807-15.205-15.205   S41.604,34.795,50,34.795c8.398,0,15.205,6.807,15.205,15.205S58.398,65.205,50,65.205z M50,42.438   c-4.177,0-7.563,3.386-7.563,7.563s3.386,7.563,7.563,7.563s7.563-3.386,7.563-7.563S54.177,42.438,50,42.438z"/></g></svg>