<svg xmlns="http://www.w3.org/2000/svg" width="55" height="55"><g fill="none"><path d="M27.5 0A27.5 27.5 0 1 1 0 27.5 27.5 27.5 0 0 1 27.5 0z"/><path fill="#a3a3a3" d="M27.5 2A25.404 25.404 0 0 0 9.469 9.469 25.404 25.404 0 0 0 2 27.5a25.404 25.404 0 0 0 7.469 18.031A25.404 25.404 0 0 0 27.5 53a25.404 25.404 0 0 0 18.031-7.469A25.404 25.404 0 0 0 53 27.5a25.404 25.404 0 0 0-7.469-18.031A25.404 25.404 0 0 0 27.5 2m0-2C42.688 0 55 12.312 55 27.5S42.688 55 27.5 55 0 42.688 0 27.5 12.312 0 27.5 0z"/></g><path fill="none" stroke="#a3a3a3" stroke-width="2" d="m15.5 27.564 7.42 8.62L39.5 21.499"/></svg>