<svg width="132" height="42" fill="none" xmlns="http://www.w3.org/2000/svg"><g clip-path="url(#a)"><mask id="b" style="mask-type:luminance" maskUnits="userSpaceOnUse" x="0" y="4" width="132" height="34"><path d="M0 4.879h131.511v32.247H0V4.879Z" fill="#fff"/></mask><g mask="url(#b)" fill="#fff"><path d="m86.165 23.053 6.404 12.926h9.953V5.656h-9.528V18.28a.845.845 0 0 1-1.602.375L84.954 5.656h-9.953v30.321h9.557v-12.55a.845.845 0 0 1 1.602-.374M60.263 5.656h10.45v30.321h-10.45V5.657Zm45.347 12.291v5.588c0 5.436 2.051 9.366 6.094 11.68 6.45 3.691 15.737 1.412 19.808-1.598v-14.11h-9.438v8.873l-.179.071a5.388 5.388 0 0 1-4.634-.352 5.033 5.033 0 0 1-1.845-4.459v-6.253a3.37 3.37 0 0 1 2.524-3.659 3.501 3.501 0 0 1 4.159 2.354l9.142-4.904a12.606 12.606 0 0 0-11.622-6.3c-.616 0-1.216.03-1.788.081a14.438 14.438 0 0 0-8.412 3.347 12.527 12.527 0 0 0-3.801 9.64M25.93 5.656H0v8.877h7.8v21.45h10.316v-21.45h7.807l.008-8.877ZM37.899 36.32l6.534-20.302a.844.844 0 0 1 1.65.258v20.046h9.909V6H37.256L27 36.32h10.899Z"/></g></g><defs><clipPath id="a"><path fill="#fff" d="M0 0h132v42H0z"/></clipPath></defs></svg>