<svg width="20" height="18" viewBox="0 0 30 28" fill="none" xmlns="http://www.w3.org/2000/svg"><path d="M27.012 7.938 22.5 12.45a6.64 6.64 0 0 1-8.046 8.05l-3.066 3.066c1.498.444 3.051.67 4.614.671a17.973 17.973 0 0 0 15.777-10.234 20.098 20.098 0 0 0-4.766-6.066Zm.926-7.403L23.083 5.39A16.362 16.362 0 0 0 16 3.763 17.973 17.973 0 0 0 .223 14a19.582 19.582 0 0 0 6.736 7.514l-5.95 5.95h3.055L30.992.535h-3.054Zm-11.937 10.09a3.353 3.353 0 0 0-3.016 4.862l-2.4 2.4a6.56 6.56 0 0 1-1.281-3.886A6.696 6.696 0 0 1 16 7.305c1.398.002 2.76.45 3.884 1.28l-2.4 2.4a3.33 3.33 0 0 0-1.483-.36Z" fill="#A6A6A6"/></svg>