<svg xmlns="http://www.w3.org/2000/svg" width="20" height="20"><path fill="none" d="M0 0h20v20H0z"/><path fill="#1da1f2" d="M6.756 17.372A10.611 10.611 0 0 0 17.439 6.688c0-.162 0-.324-.011-.485A7.6 7.6 0 0 0 19.3 4.259a7.531 7.531 0 0 1-2.155.591 3.777 3.777 0 0 0 1.651-2.077 7.57 7.57 0 0 1-2.385.912 3.755 3.755 0 0 0-6.495 2.567 3.825 3.825 0 0 0 .1.857 10.668 10.668 0 0 1-7.74-3.923A3.757 3.757 0 0 0 3.44 8.198a3.727 3.727 0 0 1-1.7-.47v.048a3.756 3.756 0 0 0 3.011 3.681 3.755 3.755 0 0 1-.988.132 3.7 3.7 0 0 1-.706-.069 3.76 3.76 0 0 0 3.507 2.609 7.58 7.58 0 0 1-5.559 1.555 10.618 10.618 0 0 0 5.755 1.688"/></svg>